<svg xmlns="http://www.w3.org/2000/svg" viewBox="0 0 2432 1442" fill="none">
  <rect width="2432" height="1442" fill="#1f2937"/>
  <rect x="20" y="20" width="2392" height="1402" rx="8" fill="#111827" stroke="#374151" stroke-width="2"/>
  
  <!-- Sidebar -->
  <rect x="20" y="20" width="280" height="1402" fill="#1f2937"/>
  <rect x="40" y="60" width="240" height="40" rx="4" fill="#374151"/>
  <rect x="40" y="120" width="200" height="24" rx="2" fill="#4b5563"/>
  <rect x="40" y="160" width="180" height="24" rx="2" fill="#4b5563"/>
  <rect x="40" y="200" width="220" height="24" rx="2" fill="#4b5563"/>
  <rect x="40" y="260" width="240" height="40" rx="4" fill="#6366f1"/>
  
  <!-- Main content area -->
  <rect x="320" y="40" width="2092" height="60" fill="#1f2937"/>
  <rect x="340" y="55" width="200" height="30" rx="4" fill="#374151"/>
  
  <!-- Document grid -->
  <g transform="translate(340, 140)">
    <rect width="480" height="300" rx="8" fill="#1f2937" stroke="#374151"/>
    <rect x="20" y="20" width="440" height="180" fill="#374151"/>
    <rect x="20" y="220" width="300" height="20" rx="2" fill="#4b5563"/>
    <rect x="20" y="260" width="200" height="16" rx="2" fill="#6b7280"/>
  </g>
  
  <g transform="translate(840, 140)">
    <rect width="480" height="300" rx="8" fill="#1f2937" stroke="#374151"/>
    <rect x="20" y="20" width="440" height="180" fill="#374151"/>
    <rect x="20" y="220" width="280" height="20" rx="2" fill="#4b5563"/>
    <rect x="20" y="260" width="180" height="16" rx="2" fill="#6b7280"/>
  </g>
  
  <g transform="translate(1340, 140)">
    <rect width="480" height="300" rx="8" fill="#1f2937" stroke="#374151"/>
    <rect x="20" y="20" width="440" height="180" fill="#374151"/>
    <rect x="20" y="220" width="320" height="20" rx="2" fill="#4b5563"/>
    <rect x="20" y="260" width="160" height="16" rx="2" fill="#6b7280"/>
  </g>
  
  <!-- Placeholder text -->
  <text x="1216" y="900" text-anchor="middle" font-family="system-ui, sans-serif" font-size="48" fill="#6b7280">
    Replace with screenshot1.png
  </text>
  <text x="1216" y="970" text-anchor="middle" font-family="system-ui, sans-serif" font-size="24" fill="#4b5563">
    Copy from your React build's public folder
  </text>
</svg>
